<svg xmlns="http://www.w3.org/2000/svg" xmlns:xlink="http://www.w3.org/1999/xlink" width="1080" zoomAndPan="magnify" viewBox="0 0 810 809.999993" height="1080" preserveAspectRatio="xMidYMid meet" version="1.0"><path fill="#ffffff" d="M 358.753906 38.441406 C 358.5625 38.753906 360.65625 41.59375 363.410156 44.746094 C 387.050781 71.855469 402.96875 106.609375 410.210938 146.945312 C 411.058594 151.65625 411.75 156.128906 411.75 156.886719 C 411.75 158.207031 409.003906 158.25 337.054688 158.066406 L 262.363281 157.875 L 260.660156 153.6875 C 254.414062 138.339844 241.355469 126.761719 224.222656 121.382812 C 219.25 119.820312 217.207031 119.628906 205.875 119.652344 C 193.914062 119.679688 192.753906 119.8125 187.125 121.765625 C 177.730469 125.027344 172.011719 128.585938 165.359375 135.300781 C 155.085938 145.671875 149.609375 159.050781 148.726562 175.933594 C 147.539062 198.582031 155.574219 218.441406 170.511719 229.773438 C 177.21875 234.859375 180.464844 236.488281 188.601562 238.847656 C 196.957031 241.269531 204.878906 241.882812 213.722656 240.800781 C 235.71875 238.105469 252.691406 225.605469 261.070312 205.941406 L 263.011719 201.375 L 337.757812 201.183594 C 408.59375 201.003906 412.5 201.0625 412.492188 202.308594 C 412.472656 205.378906 409.320312 223.765625 407.511719 231.375 C 406.429688 235.914062 404.242188 243.417969 402.648438 248.054688 C 401.054688 252.691406 399.75 256.828125 399.75 257.246094 C 399.75 257.664062 402.363281 255.796875 405.5625 253.097656 C 423.808594 237.6875 451.304688 223.570312 475.5 217.183594 C 497.117188 211.476562 512.386719 209.632812 537.75 209.660156 C 556.992188 209.683594 561.925781 210.054688 578.25 212.707031 C 604.246094 216.933594 631.457031 227.371094 652.5 241.1875 C 659.546875 245.816406 668.949219 252.871094 670.816406 254.933594 C 671.59375 255.796875 672.515625 256.5 672.867188 256.5 C 673.214844 256.5 673.5 207.394531 673.5 147.375 C 673.5 87.355469 673.246094 38.25 672.9375 38.25 C 564.808594 37.90625 359.007812 38.035156 358.753906 38.441406 M 527.4375 321.746094 C 493.421875 326.550781 472.753906 350.597656 471.214844 387.160156 C 470.488281 404.355469 473.203125 418.074219 479.859375 430.875 C 482.664062 436.261719 484.8125 439.074219 490.5 444.792969 C 496.613281 450.941406 498.636719 452.457031 504.75 455.449219 C 528.90625 467.277344 559.011719 465.679688 579.75 451.464844 C 585.804688 447.3125 594.75 437.660156 594.75 435.273438 C 594.75 434.421875 588.378906 434.25 556.867188 434.25 L 518.984375 434.25 L 519.375 362.625 L 673.5 362.242188 L 673.5 341.25 L 588.234375 341.25 L 586.804688 339.632812 C 583.726562 336.152344 573.597656 329.328125 568.136719 327.054688 C 558.832031 323.179688 551.890625 321.699219 541.5 321.375 C 536.34375 321.214844 530.015625 321.382812 527.4375 321.746094 M 350.625 328.253906 C 344.3125 334 330.878906 343.984375 322.789062 348.945312 C 297.65625 364.351562 268.515625 374.285156 234.75 378.949219 C 218.894531 381.140625 178.789062 381.328125 164.25 379.277344 C 142.261719 376.171875 119.558594 369.832031 102 361.890625 C 96.84375 359.558594 92.203125 357.46875 91.6875 357.246094 C 90.941406 356.921875 90.75 374.015625 90.75 441.292969 L 90.75 525.75 L 400.089844 525.75 L 394.421875 519.9375 C 367.09375 491.902344 351.800781 459.601562 346.011719 417.683594 C 344.226562 404.765625 344.234375 377.25 346.019531 364.875 C 347.675781 353.4375 350.519531 340.582031 353.378906 331.621094 C 354.609375 327.765625 355.503906 324.511719 355.371094 324.386719 C 355.234375 324.261719 353.101562 326.003906 350.625 328.253906 M 631.410156 529.730469 C 625.71875 531.671875 622.257812 534.085938 618.367188 538.832031 C 615.457031 542.382812 612.75 548.554688 612.75 551.632812 C 612.75 554.144531 614.097656 554.011719 614.71875 551.4375 C 615.597656 547.777344 618.765625 542.199219 621.878906 538.824219 C 625.667969 534.714844 631.054688 532.050781 637.957031 530.882812 C 647.761719 529.222656 656.410156 532.605469 662.433594 540.460938 C 666.34375 545.558594 667.875 550.398438 667.761719 557.324219 C 667.605469 566.996094 663.304688 574.230469 655.351562 578.203125 C 646.375 582.691406 635.324219 580.789062 628.867188 573.644531 C 623.820312 568.058594 622.230469 561.140625 624.328125 553.921875 C 627.777344 542.058594 641.425781 536.464844 651.574219 542.746094 C 660.402344 548.214844 661.066406 561.925781 652.808594 568.226562 C 648.945312 571.171875 642.589844 571.597656 638.316406 569.199219 C 634.433594 567.015625 631.9375 562.308594 632.648438 558.515625 C 634.070312 550.9375 643.113281 547.113281 648.019531 552.019531 C 650.035156 554.035156 650.027344 558.972656 648 561 C 645.398438 563.601562 641.25 562.570312 641.25 559.320312 C 641.25 558.265625 641.730469 557.992188 643.3125 558.160156 C 644.910156 558.328125 645.375 558.054688 645.375 556.957031 C 645.375 554.625 643.085938 553.679688 640.679688 555.023438 C 637.8125 556.625 637.40625 561.125 639.886719 563.78125 C 641.375 565.375 642.109375 565.589844 644.976562 565.269531 C 649.832031 564.730469 652.5 561.585938 652.5 556.398438 C 652.5 552.953125 652.210938 552.285156 649.589844 549.660156 C 647.039062 547.113281 646.242188 546.75 643.183594 546.75 C 634.355469 546.75 627.761719 554.9375 629.972656 563.152344 C 632.339844 571.9375 643.242188 576.617188 651.46875 572.378906 C 660.765625 567.589844 664.199219 556.84375 659.4375 547.453125 C 651.601562 532 628.515625 534.78125 621.667969 552 C 621.09375 553.445312 620.625 557.15625 620.625 560.25 C 620.625 564.894531 620.992188 566.621094 622.730469 570.160156 C 629.847656 584.652344 649.84375 588.136719 662.191406 577.035156 C 671.570312 568.601562 673.832031 554.355469 667.632812 542.753906 C 664.910156 537.660156 658.175781 531.65625 652.925781 529.648438 C 646.988281 527.375 638.21875 527.410156 631.410156 529.730469 M 397.257812 545.742188 C 396.980469 546.019531 396.75 580.957031 396.75 623.375 L 396.75 700.5 L 453.007812 700.5 L 452.625 545.625 L 425.195312 545.429688 C 410.109375 545.320312 397.539062 545.460938 397.257812 545.742188 M 158.402344 551.328125 C 136.800781 554.238281 117.957031 564.207031 106.585938 578.738281 C 100.800781 586.125 95.757812 596.308594 93.183594 605.792969 C 91.351562 612.539062 91.195312 614.265625 91.210938 627.375 C 91.226562 640.316406 91.40625 642.285156 93.171875 648.839844 C 99.59375 672.691406 113.949219 688.855469 136.8125 697.984375 C 147.191406 702.125 153.730469 703.128906 170.25 703.101562 C 183.726562 703.082031 185.488281 702.921875 192.695312 701.035156 C 211.046875 696.234375 224.507812 687.984375 234.726562 675.285156 C 242.609375 665.480469 249.386719 649.144531 249.929688 638.625 L 250.125 634.875 L 221.828125 634.679688 L 193.535156 634.480469 L 191.707031 638.054688 C 187.75 645.800781 180.949219 649.804688 171.75 649.796875 C 162.804688 649.789062 156.515625 645.824219 152.851562 637.875 C 151.425781 634.773438 151.128906 632.890625 151.152344 627 C 151.175781 620.800781 151.433594 619.390625 153.144531 616.125 C 155.625 611.390625 158.367188 608.785156 163.125 606.640625 C 168.324219 604.296875 176.71875 604.292969 181.554688 606.632812 C 185.414062 608.5 189.65625 612.578125 191.8125 616.5 L 193.253906 619.125 L 221.265625 619.320312 C 236.675781 619.429688 249.535156 619.261719 249.84375 618.945312 C 250.613281 618.164062 248.695312 609.433594 245.945312 601.199219 C 237.207031 575.050781 217.640625 558.238281 189.664062 552.839844 C 180.121094 551 165.9375 550.3125 158.402344 551.328125 M 310.875 585.492188 C 283.078125 588.792969 262.882812 603.8125 255.558594 626.625 C 254.082031 631.226562 253.875 633.453125 253.882812 644.625 C 253.894531 656.988281 253.964844 657.574219 256.234375 663.945312 C 262.949219 682.785156 276.144531 694.648438 297.375 700.925781 C 306.425781 703.601562 324.367188 704.316406 335.25 702.429688 C 344.140625 700.890625 355.601562 697.023438 361.1875 693.675781 C 370.441406 688.132812 379.929688 677.371094 384.058594 667.738281 C 386.59375 661.828125 388.433594 662.25 360.101562 662.25 C 335.921875 662.25 334.613281 662.320312 332.816406 663.734375 C 329.796875 666.105469 326.972656 666.894531 321.605469 666.863281 C 316.265625 666.832031 313.457031 665.800781 310.722656 662.875 C 308.804688 660.816406 306.59375 655.90625 307.28125 655.21875 C 307.539062 654.960938 325.800781 654.75 347.863281 654.75 L 387.980469 654.75 L 387.519531 645.9375 C 385.742188 611.921875 366.269531 590.582031 332.625 585.777344 C 327.648438 585.070312 315.757812 584.914062 310.875 585.492188 M 540.375 585.773438 C 531.621094 587.121094 521.53125 591.375 515.027344 596.457031 C 513.460938 597.679688 512.082031 598.554688 511.960938 598.402344 C 511.839844 598.25 510.878906 595.929688 509.824219 593.25 L 507.90625 588.375 L 468 587.976562 L 468 773.25 L 523.324219 773.25 L 523.882812 741.285156 C 524.1875 723.703125 524.273438 707.007812 524.070312 704.183594 C 523.867188 701.355469 523.84375 698.90625 524.011719 698.738281 C 524.179688 698.570312 527.425781 699.472656 531.222656 700.746094 C 537.769531 702.941406 538.746094 703.0625 550.125 703.085938 C 562.832031 703.117188 566.050781 702.535156 575.050781 698.570312 C 596.492188 689.132812 609.210938 663.90625 606.09375 636.992188 C 603.09375 611.101562 588.53125 593.09375 565.832031 587.21875 C 558.980469 585.449219 546.933594 584.761719 540.375 585.773438 M 615.695312 588.9375 C 615.664062 589.453125 615.636719 614.679688 615.636719 645 L 615.632812 700.125 L 643.816406 700.320312 L 672 700.519531 L 672 588 L 643.875 588 C 621.90625 588 615.738281 588.207031 615.695312 588.9375 M 315.511719 622.835938 C 312.160156 624.03125 310.003906 625.832031 308.546875 628.648438 C 306.285156 633.027344 306.199219 633 321.375 633 C 331.414062 633 335.25 632.757812 335.25 632.128906 C 335.25 631.648438 334.375 629.761719 333.304688 627.933594 C 330.066406 622.410156 322.65625 620.289062 315.511719 622.835938 M 530.457031 631.527344 C 524.835938 634.382812 522.15625 640.820312 523.601562 647.992188 C 526.515625 662.464844 547.832031 662.988281 551.269531 648.671875 C 552.882812 641.945312 550.835938 635.707031 545.789062 631.96875 C 542.632812 629.628906 534.644531 629.402344 530.457031 631.527344 M 344.304688 710.726562 C 341.03125 714.886719 343.390625 719.589844 348.75 719.589844 C 354.109375 719.589844 356.46875 714.886719 353.195312 710.726562 C 351.996094 709.203125 350.980469 708.75 348.75 708.75 C 346.519531 708.75 345.503906 709.203125 344.304688 710.726562 M 171.785156 711.070312 C 163.527344 712.6875 156.070312 718.472656 152.054688 726.375 C 150.113281 730.199219 149.714844 731.949219 149.414062 738.046875 C 149.152344 743.429688 149.382812 746.320312 150.339844 749.613281 C 154.679688 764.550781 168.894531 772.75 184.652344 769.40625 C 193.367188 767.558594 199.96875 762.488281 203.960938 754.574219 C 206.253906 750.039062 208.324219 740.578125 207.5 738.429688 C 207.109375 737.410156 204.996094 737.25 192.066406 737.25 C 176.164062 737.25 176.085938 737.269531 175.859375 740.960938 C 175.585938 745.324219 176.058594 745.5 187.996094 745.5 L 198.9375 745.5 L 198.460938 747.9375 C 197.300781 753.882812 190.960938 759.847656 183.882812 761.652344 C 176.320312 763.585938 168.992188 761.734375 163.609375 756.53125 C 152.847656 746.136719 155.253906 727.082031 168.15625 720.484375 C 173.765625 717.613281 181.394531 717.417969 187.339844 719.992188 C 190.945312 721.554688 197.25 727.351562 197.25 729.105469 C 197.25 729.460938 199.105469 729.75 201.375 729.75 C 206.230469 729.75 206.351562 729.386719 203.300781 724.066406 C 197.40625 713.785156 184.683594 708.539062 171.785156 711.070312 M 314.71875 717.84375 C 314.460938 719.132812 314.246094 720.90625 314.238281 721.78125 C 314.21875 724.597656 312.980469 725.558594 308.855469 725.976562 L 304.875 726.375 L 304.636719 729.296875 C 304.34375 732.871094 305.25 733.589844 309.75 733.351562 L 313.125 733.171875 L 313.523438 746.273438 C 313.746094 753.480469 314.304688 760.238281 314.765625 761.296875 C 315.808594 763.683594 320.460938 767.839844 322.699219 768.386719 C 323.621094 768.609375 326.738281 768.867188 329.625 768.960938 L 334.875 769.125 L 335.105469 765.5625 L 335.332031 762 L 331.214844 762 C 322.097656 762 321 760.109375 321 744.398438 L 321 733.5 L 327.226562 733.5 C 333.835938 733.5 335.25 732.890625 335.25 730.035156 C 335.25 726.257812 334.761719 726 327.667969 726 L 321 726 L 321 715.5 L 318.09375 715.5 C 315.4375 715.5 315.148438 715.703125 314.71875 717.84375 M 227.539062 726.460938 C 223.214844 727.996094 218.546875 732.234375 216.183594 736.769531 C 214.449219 740.101562 214.171875 741.542969 214.15625 747.375 C 214.128906 755.121094 215.730469 759.429688 220.351562 764.050781 C 229.660156 773.359375 247.382812 771.554688 254.804688 760.546875 C 257.371094 756.730469 257.0625 756 252.878906 756 C 249.949219 756 248.914062 756.371094 247.441406 757.949219 C 242.503906 763.238281 233.90625 764.40625 227.90625 760.601562 C 225.933594 759.351562 223.988281 757.339844 223.257812 755.800781 C 220.75 750.515625 219.972656 750.75 240.101562 750.75 L 258.207031 750.75 L 257.824219 746.015625 C 257.074219 736.683594 251.304688 728.6875 243.683594 726.425781 C 238.828125 724.984375 231.664062 725 227.539062 726.460938 M 274.242188 726.300781 C 263.722656 730.210938 262.613281 742.652344 272.351562 747.503906 C 274.261719 748.457031 278.226562 749.738281 281.164062 750.355469 C 288.191406 751.835938 291.371094 753.226562 292.835938 755.460938 C 296.472656 761.011719 286.023438 765.699219 277.558594 762.3125 C 274.570312 761.113281 272.25 758.535156 272.25 756.402344 C 272.25 755.519531 271.371094 755.25 268.5 755.25 C 265.230469 755.25 264.75 755.445312 264.75 756.773438 C 264.75 761.6875 269.875 767.238281 276.125 769.09375 C 289.886719 773.179688 303.5625 765.40625 300.71875 755.113281 C 299.210938 749.644531 294.199219 746.542969 282.183594 743.648438 C 274.378906 741.765625 271.917969 739.441406 273.464844 735.410156 C 274.683594 732.238281 283.167969 730.902344 288.347656 733.066406 C 289.785156 733.664062 291.421875 735.140625 292.09375 736.441406 C 293.15625 738.5 293.65625 738.75 296.644531 738.75 C 299.769531 738.75 300 738.613281 300 736.777344 C 300 733.753906 297.242188 729.953125 293.425781 727.71875 C 290.546875 726.03125 288.917969 725.660156 283.550781 725.464844 C 279.292969 725.308594 276.152344 725.589844 274.242188 726.300781 M 376.125 726.730469 C 370.773438 728.855469 367.164062 732.136719 364.734375 737.078125 C 362.910156 740.792969 362.628906 742.234375 362.660156 747.75 C 362.691406 753.140625 363.003906 754.71875 364.6875 757.96875 C 368.542969 765.40625 376.601562 770.25 385.125 770.25 C 393.648438 770.25 401.699219 765.410156 405.566406 757.96875 C 407.277344 754.679688 407.5625 753.203125 407.554688 747.75 C 407.539062 738.09375 404.183594 731.996094 396.617188 727.871094 C 391.273438 724.960938 381.894531 724.4375 376.125 726.730469 M 432.136719 726.390625 C 430.769531 726.984375 428.785156 728.152344 427.722656 728.984375 C 425.179688 730.984375 424.644531 730.898438 424.363281 728.4375 C 424.148438 726.570312 423.839844 726.375 421.125 726.375 L 418.125 726.375 L 418.125 769.125 L 424.875 769.125 L 425.273438 755.625 C 425.710938 740.832031 426.152344 739.148438 430.53125 735.464844 C 433.4375 733.019531 435.558594 732.46875 440.324219 732.925781 C 444.804688 733.355469 447.847656 735.863281 449.144531 740.1875 C 449.640625 741.847656 450 748.40625 450 755.820312 C 450 766.773438 450.167969 768.652344 451.1875 769.042969 C 453.195312 769.816406 456.53125 769.550781 457.222656 768.5625 C 457.585938 768.046875 457.707031 760.875 457.492188 752.625 C 457.140625 739.160156 456.9375 737.316406 455.496094 734.625 C 453.445312 730.804688 450.378906 727.894531 446.835938 726.414062 C 443.359375 724.960938 435.453125 724.949219 432.136719 726.390625 M 345.175781 747.5625 L 345.375 769.125 L 352.125 769.125 L 352.523438 726 L 344.976562 726 Z M 231.375 732.90625 C 228.113281 734.046875 224.417969 737 223.125 739.5 C 220.773438 744.046875 220.632812 744 235.875 744 C 251.09375 744 250.972656 744.042969 248.652344 739.550781 C 245.617188 733.679688 237.78125 730.667969 231.375 732.90625 M 381.851562 732.875 C 373.617188 734.320312 368.621094 742.308594 370.492188 751.03125 C 372.046875 758.292969 377.589844 762.71875 385.125 762.71875 C 392.164062 762.71875 397.570312 758.75 399.734375 752.007812 C 400.753906 748.816406 400.226562 743.347656 398.589844 740.183594 C 397.597656 738.261719 392.71875 733.53125 391.660156 733.46875 C 391.367188 733.449219 389.773438 733.179688 388.125 732.867188 C 386.476562 732.558594 383.652344 732.558594 381.851562 732.875 " fill-opacity="1" fill-rule="evenodd"/></svg>